<?xml version="1.0" standalone="no"?>
<!DOCTYPE svg PUBLIC "-//W3C//DTD SVG 1.0//EN" "http://www.w3.org/TR/2001/REC-SVG-20010904/DTD/svg10.dtd">
<svg xmlns="http://www.w3.org/2000/svg" xmlns:xlink="http://www.w3.org/1999/xlink" id="body_1" width="16" height="16">

<defs>
    <clipPath  id="1">

    <path id=""  clip-rule="evenodd" transform="matrix(1 0 0 1 0 0)"  d="M0 12L0 0L0 0L12 0L12 0L12 12L12 12L0 12z" />    </clipPath>
</defs>

<g transform="matrix(1.3333 0 0 1.3333 0 0)">
	<g clip-path="url(#1)" >
    <path id=""  transform="matrix(1 0 0 -1 0 12)"  d="M8.2275 8.2725C 8.447109 8.481573 8.792913 8.478955 9.009333 8.266582L9.009333 8.266582L9.009333 8.266582C 9.225752 8.054207 9.234893 7.708514 9.03 7.485L9.03 7.485L6.0374994 3.7425003C 5.933529 3.630515 5.7884717 3.565648 5.6356883 3.5628185L5.6356883 3.5628185L5.6356883 3.5628185C 5.482905 3.559989 5.3355455 3.619441 5.2274995 3.7275L5.2274995 3.7275L3.243 5.712C 3.0925107 5.852228 3.0305638 6.0634165 3.081462 6.2627163L3.081462 6.2627163L3.081462 6.2627163C 3.1323595 6.462016 3.2879841 6.6176405 3.487284 6.668538L3.487284 6.668538L3.487284 6.668538C 3.6865835 6.719436 3.897772 6.6574893 4.038 6.507L4.038 6.507L5.6085005 4.93725L5.6085005 4.93725L8.213251 8.2560005L8.213251 8.2560005L8.213251 8.2560005C 8.21794 8.261774 8.222948 8.267283 8.228251 8.2725" stroke="#FFFFFF" stroke-width="1" fill="#000000" fill-rule="nonzero" />
	</g>
</g>
</svg>